<svg xmlns="http://www.w3.org/2000/svg" xmlns:xlink="http://www.w3.org/1999/xlink" width="500" zoomAndPan="magnify" viewBox="0 0 375 374.999991" height="500" preserveAspectRatio="xMidYMid meet" version="1.0"><defs><g/><clipPath id="e0eb8e8a15"><path d="M 73 156.914062 L 130 156.914062 L 130 217.617188 L 73 217.617188 Z M 73 156.914062 " clip-rule="nonzero"/></clipPath><clipPath id="d79ea50efd"><path d="M 43.707031 164.304688 L 119.652344 135.300781 L 148.65625 211.253906 L 72.703125 240.253906 Z M 43.707031 164.304688 " clip-rule="nonzero"/></clipPath><clipPath id="33cdcbbe59"><path d="M 43.707031 164.304688 L 119.652344 135.300781 L 148.65625 211.253906 L 72.703125 240.253906 Z M 43.707031 164.304688 " clip-rule="nonzero"/></clipPath><clipPath id="70923cb2f2"><path d="M 75.023438 190 L 101 190 L 101 216 L 75.023438 216 Z M 75.023438 190 " clip-rule="nonzero"/></clipPath><clipPath id="5d9fc4171b"><path d="M 43.707031 164.304688 L 119.652344 135.300781 L 148.65625 211.253906 L 72.703125 240.253906 Z M 43.707031 164.304688 " clip-rule="nonzero"/></clipPath><clipPath id="374e1d710f"><path d="M 43.707031 164.304688 L 119.652344 135.300781 L 148.65625 211.253906 L 72.703125 240.253906 Z M 43.707031 164.304688 " clip-rule="nonzero"/></clipPath><clipPath id="0b0a5b890b"><path d="M 86 163 L 92.367188 163 L 92.367188 201 L 86 201 Z M 86 163 " clip-rule="nonzero"/></clipPath><clipPath id="35614b56d3"><path d="M 43.707031 164.304688 L 119.652344 135.300781 L 148.65625 211.253906 L 72.703125 240.253906 Z M 43.707031 164.304688 " clip-rule="nonzero"/></clipPath><clipPath id="90a79325ad"><path d="M 43.707031 164.304688 L 119.652344 135.300781 L 148.65625 211.253906 L 72.703125 240.253906 Z M 43.707031 164.304688 " clip-rule="nonzero"/></clipPath><clipPath id="77f6703c9c"><path d="M 82 200 L 120 200 L 120 204 L 82 204 Z M 82 200 " clip-rule="nonzero"/></clipPath><clipPath id="8fd1d7a987"><path d="M 43.707031 164.304688 L 119.652344 135.300781 L 148.65625 211.253906 L 72.703125 240.253906 Z M 43.707031 164.304688 " clip-rule="nonzero"/></clipPath><clipPath id="7fb6e9c2fe"><path d="M 43.707031 164.304688 L 119.652344 135.300781 L 148.65625 211.253906 L 72.703125 240.253906 Z M 43.707031 164.304688 " clip-rule="nonzero"/></clipPath><clipPath id="98be2a1bd3"><path d="M 81.527344 158 L 101 158 L 101 177.511719 L 81.527344 177.511719 Z M 81.527344 158 " clip-rule="nonzero"/></clipPath><clipPath id="cf7c4a4f73"><path d="M 43.707031 164.304688 L 119.652344 135.300781 L 148.65625 211.253906 L 72.703125 240.253906 Z M 43.707031 164.304688 " clip-rule="nonzero"/></clipPath><clipPath id="683be02015"><path d="M 43.707031 164.304688 L 119.652344 135.300781 L 148.65625 211.253906 L 72.703125 240.253906 Z M 43.707031 164.304688 " clip-rule="nonzero"/></clipPath><clipPath id="ef1f443ba0"><path d="M 109.710938 191.601562 L 129 191.601562 L 129 211 L 109.710938 211 Z M 109.710938 191.601562 " clip-rule="nonzero"/></clipPath><clipPath id="ff60728240"><path d="M 43.707031 164.304688 L 119.652344 135.300781 L 148.65625 211.253906 L 72.703125 240.253906 Z M 43.707031 164.304688 " clip-rule="nonzero"/></clipPath><clipPath id="dab04b6d06"><path d="M 43.707031 164.304688 L 119.652344 135.300781 L 148.65625 211.253906 L 72.703125 240.253906 Z M 43.707031 164.304688 " clip-rule="nonzero"/></clipPath></defs><g clip-path="url(#e0eb8e8a15)"><g clip-path="url(#d79ea50efd)"><g clip-path="url(#33cdcbbe59)"><path fill="#e50e2c" d="M 127.851562 194.566406 C 124.960938 190.546875 119.71875 188.96875 115.101562 190.734375 C 114.226562 191.070312 113.390625 191.523438 112.621094 192.074219 C 110.253906 193.773438 108.691406 196.292969 108.222656 199.171875 C 108.183594 199.398438 108.152344 199.621094 108.132812 199.847656 L 101.992188 200.207031 C 101.59375 198.234375 100.78125 196.347656 99.570312 194.667969 C 97.339844 191.558594 94.035156 189.566406 90.457031 188.917969 L 91.574219 178.804688 C 92.671875 178.746094 93.773438 178.519531 94.84375 178.113281 C 95.722656 177.777344 96.554688 177.324219 97.328125 176.773438 C 99.695312 175.070312 101.257812 172.550781 101.726562 169.671875 C 102.195312 166.796875 101.519531 163.910156 99.816406 161.542969 C 96.929688 157.523438 91.6875 155.949219 87.066406 157.714844 C 86.191406 158.050781 85.355469 158.5 84.585938 159.054688 C 79.703125 162.5625 78.585938 169.398438 82.09375 174.285156 C 83.609375 176.394531 85.769531 177.824219 88.15625 178.460938 L 87.019531 188.714844 C 85.597656 188.804688 84.175781 189.101562 82.796875 189.628906 C 81.640625 190.070312 80.546875 190.660156 79.535156 191.386719 C 76.421875 193.625 74.363281 196.945312 73.746094 200.726562 C 73.121094 204.515625 74.015625 208.316406 76.257812 211.429688 C 80.054688 216.714844 86.953125 218.789062 93.027344 216.464844 C 94.183594 216.027344 95.28125 215.433594 96.296875 214.707031 C 99.410156 212.46875 101.464844 209.152344 102.085938 205.367188 C 102.179688 204.789062 102.234375 204.210938 102.253906 203.636719 L 108.328125 203.28125 C 108.644531 204.710938 109.246094 206.078125 110.125 207.304688 C 113.015625 211.320312 118.257812 212.898438 122.875 211.132812 C 123.753906 210.796875 124.585938 210.347656 125.359375 209.792969 C 127.726562 208.09375 129.289062 205.570312 129.757812 202.695312 C 130.226562 199.816406 129.550781 196.933594 127.851562 194.566406 " fill-opacity="1" fill-rule="nonzero"/></g></g></g><g clip-path="url(#70923cb2f2)"><g clip-path="url(#5d9fc4171b)"><g clip-path="url(#374e1d710f)"><path fill="#e50e2c" d="M 98.171875 195.671875 C 102.25 201.335938 100.957031 209.234375 95.289062 213.308594 C 89.625 217.386719 81.726562 216.089844 77.652344 210.425781 C 73.574219 204.757812 74.871094 196.863281 80.539062 192.785156 C 86.203125 188.710938 94.101562 190.007812 98.171875 195.671875 " fill-opacity="1" fill-rule="nonzero"/></g></g></g><g clip-path="url(#0b0a5b890b)"><g clip-path="url(#35614b56d3)"><g clip-path="url(#90a79325ad)"><path fill="#e50e2c" d="M 88.414062 199.558594 L 92.355469 163.980469 C 92.40625 163.507812 92.0625 163.085938 91.59375 163.027344 C 91.117188 162.976562 90.695312 163.316406 90.640625 163.792969 L 86.703125 199.367188 C 86.652344 199.839844 86.992188 200.261719 87.464844 200.316406 C 87.9375 200.367188 88.363281 200.027344 88.414062 199.558594 " fill-opacity="1" fill-rule="nonzero"/></g></g></g><g clip-path="url(#77f6703c9c)"><g clip-path="url(#8fd1d7a987)"><g clip-path="url(#7fb6e9c2fe)"><path fill="#e50e2c" d="M 83.304688 203.886719 L 119.039062 201.789062 C 119.515625 201.765625 119.875 201.359375 119.847656 200.882812 C 119.820312 200.410156 119.414062 200.046875 118.9375 200.074219 L 83.203125 202.167969 C 82.730469 202.195312 82.371094 202.601562 82.394531 203.078125 C 82.425781 203.550781 82.832031 203.910156 83.304688 203.886719 " fill-opacity="1" fill-rule="nonzero"/></g></g></g><g clip-path="url(#98be2a1bd3)"><g clip-path="url(#cf7c4a4f73)"><g clip-path="url(#683be02015)"><path fill="#e50e2c" d="M 98.417969 162.546875 C 101.382812 166.671875 100.441406 172.414062 96.324219 175.375 C 92.199219 178.339844 86.457031 177.402344 83.492188 173.277344 C 80.527344 169.15625 81.46875 163.414062 85.59375 160.449219 C 89.714844 157.484375 95.460938 158.425781 98.417969 162.546875 " fill-opacity="1" fill-rule="nonzero"/></g></g></g><g clip-path="url(#ef1f443ba0)"><g clip-path="url(#ff60728240)"><g clip-path="url(#dab04b6d06)"><path fill="#e50e2c" d="M 126.453125 195.570312 C 129.414062 199.691406 128.472656 205.4375 124.355469 208.394531 C 120.230469 211.359375 114.488281 210.421875 111.523438 206.300781 C 108.5625 202.175781 109.503906 196.433594 113.625 193.46875 C 117.75 190.503906 123.492188 191.445312 126.453125 195.570312 " fill-opacity="1" fill-rule="nonzero"/></g></g></g><g fill="#ffffff" fill-opacity="1"><g transform="translate(142.22664, 203.251275)"><g><path d="M 18.953125 0 L 14 0 L 10.375 -5.84375 L 9.359375 -7.84375 L 7.015625 -5.296875 L 7.015625 0 L 2.96875 0 L 2.96875 -28.671875 L 6.984375 -28.671875 L 6.984375 -12.953125 L 6.90625 -9.90625 L 13.734375 -17.90625 L 18.921875 -17.90625 L 12.171875 -10.40625 Z M 18.953125 0 "/></g></g></g><g fill="#ffffff" fill-opacity="1"><g transform="translate(161.570651, 203.251275)"><g><path d="M 10.6875 0.390625 C 9.070312 0.390625 7.582031 0.0078125 6.21875 -0.75 C 4.851562 -1.519531 3.757812 -2.613281 2.9375 -4.03125 C 2.125 -5.445312 1.71875 -7.109375 1.71875 -9.015625 C 1.71875 -10.878906 2.070312 -12.515625 2.78125 -13.921875 C 3.5 -15.328125 4.519531 -16.421875 5.84375 -17.203125 C 7.175781 -17.984375 8.738281 -18.375 10.53125 -18.375 C 11.570312 -18.375 12.546875 -18.191406 13.453125 -17.828125 C 14.359375 -17.460938 15.125 -17.007812 15.75 -16.46875 C 16.375 -15.9375 16.789062 -15.410156 17 -14.890625 L 17.078125 -17.90625 L 21.09375 -17.90625 L 21.09375 0 L 17.125 0 L 17.046875 -3.15625 C 16.597656 -2.21875 15.789062 -1.390625 14.625 -0.671875 C 13.457031 0.0351562 12.144531 0.390625 10.6875 0.390625 Z M 11.390625 -3.125 C 12.867188 -3.125 14.113281 -3.632812 15.125 -4.65625 C 16.144531 -5.6875 16.65625 -7.035156 16.65625 -8.703125 L 16.65625 -8.96875 C 16.65625 -10.082031 16.421875 -11.082031 15.953125 -11.96875 C 15.484375 -12.851562 14.84375 -13.539062 14.03125 -14.03125 C 13.226562 -14.53125 12.347656 -14.78125 11.390625 -14.78125 C 9.722656 -14.78125 8.429688 -14.238281 7.515625 -13.15625 C 6.609375 -12.082031 6.15625 -10.6875 6.15625 -8.96875 C 6.15625 -7.226562 6.601562 -5.816406 7.5 -4.734375 C 8.40625 -3.660156 9.703125 -3.125 11.390625 -3.125 Z M 11.390625 -3.125 "/></g></g></g><g fill="#ffffff" fill-opacity="1"><g transform="translate(185.360669, 203.251275)"><g><path d="M 18.953125 0 L 14 0 L 10.375 -5.84375 L 9.359375 -7.84375 L 7.015625 -5.296875 L 7.015625 0 L 2.96875 0 L 2.96875 -28.671875 L 6.984375 -28.671875 L 6.984375 -12.953125 L 6.90625 -9.90625 L 13.734375 -17.90625 L 18.921875 -17.90625 L 12.171875 -10.40625 Z M 18.953125 0 "/></g></g></g><g fill="#ffffff" fill-opacity="1"><g transform="translate(204.704682, 203.251275)"><g><path d="M 8.9375 0.390625 C 7.6875 0.390625 6.390625 0.226562 5.046875 -0.09375 C 3.710938 -0.414062 2.757812 -0.800781 2.1875 -1.25 L 3.59375 -4.5625 C 5.144531 -3.46875 6.925781 -2.921875 8.9375 -2.921875 C 10.9375 -2.921875 11.9375 -3.507812 11.9375 -4.6875 C 11.9375 -5.195312 11.726562 -5.59375 11.3125 -5.875 C 10.894531 -6.164062 10.15625 -6.507812 9.09375 -6.90625 L 7.609375 -7.453125 C 6.046875 -8.078125 4.804688 -8.820312 3.890625 -9.6875 C 2.984375 -10.5625 2.53125 -11.710938 2.53125 -13.140625 C 2.53125 -14.773438 3.171875 -16.054688 4.453125 -16.984375 C 5.742188 -17.910156 7.472656 -18.375 9.640625 -18.375 C 10.703125 -18.375 11.742188 -18.253906 12.765625 -18.015625 C 13.796875 -17.785156 14.582031 -17.488281 15.125 -17.125 L 13.609375 -13.765625 C 13.273438 -14.109375 12.734375 -14.398438 11.984375 -14.640625 C 11.242188 -14.890625 10.421875 -15.015625 9.515625 -15.015625 C 7.671875 -15.015625 6.75 -14.457031 6.75 -13.34375 C 6.75 -12.71875 6.992188 -12.238281 7.484375 -11.90625 C 7.984375 -11.582031 8.789062 -11.226562 9.90625 -10.84375 C 10.007812 -10.8125 10.410156 -10.664062 11.109375 -10.40625 C 12.773438 -9.757812 14.007812 -9.019531 14.8125 -8.1875 C 15.625 -7.351562 16.03125 -6.285156 16.03125 -4.984375 C 16.03125 -3.222656 15.359375 -1.882812 14.015625 -0.96875 C 12.679688 -0.0625 10.988281 0.390625 8.9375 0.390625 Z M 8.9375 0.390625 "/></g></g></g><g fill="#ffffff" fill-opacity="1"><g transform="translate(222.137701, 203.251275)"><g><path d="M 2.96875 -28.671875 L 7.0625 -28.671875 L 7.0625 -17.90625 L 6.90625 -14.59375 C 7.394531 -15.675781 8.1875 -16.578125 9.28125 -17.296875 C 10.375 -18.015625 11.648438 -18.375 13.109375 -18.375 C 14.953125 -18.375 16.367188 -17.988281 17.359375 -17.21875 C 18.347656 -16.445312 19.007812 -15.375 19.34375 -14 C 19.675781 -12.625 19.84375 -10.832031 19.84375 -8.625 L 19.84375 0 L 15.671875 0 L 15.671875 -8.65625 C 15.671875 -10.164062 15.585938 -11.347656 15.421875 -12.203125 C 15.253906 -13.066406 14.914062 -13.71875 14.40625 -14.15625 C 13.90625 -14.59375 13.171875 -14.8125 12.203125 -14.8125 C 11.421875 -14.8125 10.632812 -14.578125 9.84375 -14.109375 C 9.050781 -13.648438 8.394531 -12.96875 7.875 -12.0625 C 7.351562 -11.164062 7.09375 -10.109375 7.09375 -8.890625 L 7.09375 0 L 2.96875 0 Z M 2.96875 -28.671875 "/></g></g></g><g fill="#ffffff" fill-opacity="1"><g transform="translate(244.367716, 203.251275)"><g><path d="M 10.6875 0.390625 C 9.070312 0.390625 7.582031 0.0078125 6.21875 -0.75 C 4.851562 -1.519531 3.757812 -2.613281 2.9375 -4.03125 C 2.125 -5.445312 1.71875 -7.109375 1.71875 -9.015625 C 1.71875 -10.878906 2.070312 -12.515625 2.78125 -13.921875 C 3.5 -15.328125 4.519531 -16.421875 5.84375 -17.203125 C 7.175781 -17.984375 8.738281 -18.375 10.53125 -18.375 C 11.570312 -18.375 12.546875 -18.191406 13.453125 -17.828125 C 14.359375 -17.460938 15.125 -17.007812 15.75 -16.46875 C 16.375 -15.9375 16.789062 -15.410156 17 -14.890625 L 17.078125 -17.90625 L 21.09375 -17.90625 L 21.09375 0 L 17.125 0 L 17.046875 -3.15625 C 16.597656 -2.21875 15.789062 -1.390625 14.625 -0.671875 C 13.457031 0.0351562 12.144531 0.390625 10.6875 0.390625 Z M 11.390625 -3.125 C 12.867188 -3.125 14.113281 -3.632812 15.125 -4.65625 C 16.144531 -5.6875 16.65625 -7.035156 16.65625 -8.703125 L 16.65625 -8.96875 C 16.65625 -10.082031 16.421875 -11.082031 15.953125 -11.96875 C 15.484375 -12.851562 14.84375 -13.539062 14.03125 -14.03125 C 13.226562 -14.53125 12.347656 -14.78125 11.390625 -14.78125 C 9.722656 -14.78125 8.429688 -14.238281 7.515625 -13.15625 C 6.609375 -12.082031 6.15625 -10.6875 6.15625 -8.96875 C 6.15625 -7.226562 6.601562 -5.816406 7.5 -4.734375 C 8.40625 -3.660156 9.703125 -3.125 11.390625 -3.125 Z M 11.390625 -3.125 "/></g></g></g><g fill="#ffffff" fill-opacity="1"><g transform="translate(268.157738, 203.251275)"><g><path d="M 5.65625 0.390625 C 4.875 0.390625 4.207031 0.125 3.65625 -0.40625 C 3.113281 -0.9375 2.84375 -1.59375 2.84375 -2.375 C 2.84375 -3.1875 3.109375 -3.859375 3.640625 -4.390625 C 4.179688 -4.921875 4.851562 -5.1875 5.65625 -5.1875 C 6.457031 -5.1875 7.125 -4.921875 7.65625 -4.390625 C 8.195312 -3.859375 8.46875 -3.1875 8.46875 -2.375 C 8.46875 -1.59375 8.195312 -0.9375 7.65625 -0.40625 C 7.125 0.125 6.457031 0.390625 5.65625 0.390625 Z M 5.65625 0.390625 "/></g></g></g><g fill="#ffffff" fill-opacity="1"><g transform="translate(279.311756, 203.251275)"><g><path d="M 10.6875 0.390625 C 9.070312 0.390625 7.582031 0.0078125 6.21875 -0.75 C 4.851562 -1.519531 3.757812 -2.613281 2.9375 -4.03125 C 2.125 -5.445312 1.71875 -7.109375 1.71875 -9.015625 C 1.71875 -10.878906 2.070312 -12.515625 2.78125 -13.921875 C 3.5 -15.328125 4.519531 -16.421875 5.84375 -17.203125 C 7.175781 -17.984375 8.738281 -18.375 10.53125 -18.375 C 11.570312 -18.375 12.546875 -18.191406 13.453125 -17.828125 C 14.359375 -17.460938 15.125 -17.007812 15.75 -16.46875 C 16.375 -15.9375 16.789062 -15.410156 17 -14.890625 L 17.078125 -17.90625 L 21.09375 -17.90625 L 21.09375 0 L 17.125 0 L 17.046875 -3.15625 C 16.597656 -2.21875 15.789062 -1.390625 14.625 -0.671875 C 13.457031 0.0351562 12.144531 0.390625 10.6875 0.390625 Z M 11.390625 -3.125 C 12.867188 -3.125 14.113281 -3.632812 15.125 -4.65625 C 16.144531 -5.6875 16.65625 -7.035156 16.65625 -8.703125 L 16.65625 -8.96875 C 16.65625 -10.082031 16.421875 -11.082031 15.953125 -11.96875 C 15.484375 -12.851562 14.84375 -13.539062 14.03125 -14.03125 C 13.226562 -14.53125 12.347656 -14.78125 11.390625 -14.78125 C 9.722656 -14.78125 8.429688 -14.238281 7.515625 -13.15625 C 6.609375 -12.082031 6.15625 -10.6875 6.15625 -8.96875 C 6.15625 -7.226562 6.601562 -5.816406 7.5 -4.734375 C 8.40625 -3.660156 9.703125 -3.125 11.390625 -3.125 Z M 11.390625 -3.125 "/></g></g></g><g fill="#ffffff" fill-opacity="1"><g transform="translate(303.101778, 203.251275)"><g><path d="M 3.078125 -17.90625 L 7.453125 -17.90625 L 7.453125 0 L 3.078125 0 Z M 5.234375 -21.25 C 4.429688 -21.25 3.753906 -21.519531 3.203125 -22.0625 C 2.660156 -22.613281 2.390625 -23.296875 2.390625 -24.109375 C 2.390625 -24.828125 2.660156 -25.445312 3.203125 -25.96875 C 3.753906 -26.488281 4.429688 -26.75 5.234375 -26.75 C 6.015625 -26.75 6.675781 -26.488281 7.21875 -25.96875 C 7.769531 -25.445312 8.046875 -24.828125 8.046875 -24.109375 C 8.046875 -23.296875 7.773438 -22.613281 7.234375 -22.0625 C 6.703125 -21.519531 6.035156 -21.25 5.234375 -21.25 Z M 5.234375 -21.25 "/></g></g></g></svg>